<?xml version="1.0" encoding="utf-8"?>
<!-- Generator: Adobe Illustrator 16.0.0, SVG Export Plug-In . SVG Version: 6.00 Build 0)  -->
<!DOCTYPE svg PUBLIC "-//W3C//DTD SVG 1.1//EN" "http://www.w3.org/Graphics/SVG/1.1/DTD/svg11.dtd">
<svg version="1.1" id="Layer_1" xmlns="http://www.w3.org/2000/svg" xmlns:xlink="http://www.w3.org/1999/xlink" x="0px" y="0px"
	 width="334.333px" height="334.333px" viewBox="0 0 334.333 334.333" enable-background="new 0 0 334.333 334.333"
	 xml:space="preserve">
<circle fill="#FFFF00" stroke="#000000" stroke-miterlimit="10" cx="167.167" cy="167.166" r="166.667"/>
<g id="EVENTS">
	<g>
		<path stroke="#000000" stroke-miterlimit="10" d="M86.548,161.17c3.098-3.342,5.841-7.54,6.771-12.193
			c0.84-4.204-1.048-8.816-7.181-10.978c-4.396-1.55-8.126-0.293-13.184,4.515c-5.958,5.664-13.115,12.684-23.718,11.612
			c-19.624-1.984-24.03-25.32-18.629-40.868c3.719-10.705,8.736-15.24,12.197-17.531c4.067,4.958,6.178,7.352,10.536,11.954
			c-2.415,1.623-6.891,5.946-9.021,12.528c-2.547,7.87,0.532,13.562,4.904,14.735c4.607,1.236,8.633-2.787,14.036-7.14
			c7.625-6.144,15.882-7.16,24.618-2.636c9.811,5.081,22.097,15.772,19.898,28.143c-1.009,5.678-4.077,10.023-7.02,12.376
			C95.033,164.165,92.187,163.258,86.548,161.17z"/>
		<path stroke="#000000" stroke-miterlimit="10" d="M51.576,79.499c2.09-5.132,6.908-12.271,12.696-17.834
			c5.342-5.136,13.057-9.524,20.282-9.346c6.553,0.162,12.381,3.493,16.678,10.248c5.619,8.833,6.688,17.329,6.139,23.922
			c-0.574,6.884-3.567,12.376-7.956,17.062c-1.284,1.371-2.497,2.4-3.45,3.155c6.89,7.363,14.06,14.463,21.501,21.27
			c-1.851,2.431-2.706,3.726-4.247,6.472C90.854,117.922,70.584,99.792,51.576,79.499z M86.174,95.867
			c1.18-0.79,2.329-1.705,3.836-3.259c5.463-5.635,5.194-13.977-0.058-20.376c-5.095-6.208-10.866-5.039-15.385-0.727
			c-2.179,2.079-3.47,3.796-4.116,5.026C76.508,84.476,79.656,88.348,86.174,95.867z"/>
		<path stroke="#000000" stroke-miterlimit="10" d="M149.079,71.377c-7.757,1.337-11.59,2.362-18.93,5.125
			c2.105,7.735,3.257,11.574,5.756,19.18c6.477-2.627,9.892-3.584,16.805-4.787c0.554,5.985,0.89,8.97,1.674,14.922
			c-8.523,1.639-12.721,3.134-20.197,7.48c-12.472-25.058-22.361-50.575-30.071-77.481c14.807-6.562,30.664-10.662,46.766-12.32
			c-0.477,6.066-0.655,9.098-0.888,15.157c-11.028,1.341-16.508,2.543-27.018,6.013c1.254,7,1.964,10.482,3.54,17.4
			c8.515-3.025,12.953-4.127,21.916-5.51C148.576,62.495,148.706,65.46,149.079,71.377z"/>
		<path stroke="#000000" stroke-miterlimit="10" d="M186.843,104.937c-2.47,1.33-6.058,2.195-10.023,1.5
			c-13.683-2.399-17.125-24.161-18.755-35c-2.23-14.827,1.908-32.342,15.647-41.25c9.993-6.479,20.103-6.449,30.607-4.641
			c8.313,1.431,14.384,6.288,15.979,8.425c-3.875,4.688-5.731,7.081-9.271,11.943c-1.632-1.82-5.796-4.685-12.033-6.076
			s-12.854-0.111-17.477,3.579c-7.554,6.029-10.498,16.323-10.668,25.718c-0.232,12.789,3.147,21.612,10.68,22.881
			c2.975,0.501,6.121,0.232,8.792-0.81C188.986,96.711,188.291,99.458,186.843,104.937z"/>
		<path stroke="#000000" stroke-miterlimit="10" d="M249.098,45.587c-19.514,20.428-36.759,42.021-52.292,65.619
			c-2.709-1.321-4.108-1.898-6.958-2.891c12.559-25.194,27.053-48.606,43.934-71.132C240.106,40.163,243.184,41.844,249.098,45.587z
			"/>
		<path stroke="#000000" stroke-miterlimit="10" d="M225.427,104.738c-7.599,4.792-11.214,7.426-18.016,13.083
			c-2.535-1.984-3.871-2.883-6.64-4.496c22.064-21.491,45.94-35.625,75.13-45.389c6.195,6.757,9.043,10.45,14.079,18.467
			c-21.596,17.854-43.97,34.275-67.511,49.474c-1.577-3.01-2.466-4.423-4.404-7.072c6.757-5.435,10.103-8.194,16.731-13.792
			C231.399,110.502,229.501,108.447,225.427,104.738z M245.292,106.323c5.407-4.747,8.087-7.151,13.393-12.02
			c3.403-3.081,8.356-7.589,12.094-11.042c-0.057-0.071-0.082-0.106-0.139-0.177c-5.148,1.692-11.358,4.323-16.147,6.206
			c-7.124,2.8-10.581,4.39-17.247,7.898C240.686,100.58,242.304,102.406,245.292,106.323z"/>
		<path stroke="#000000" stroke-miterlimit="10" d="M305.152,120.346c2.263,7.725,3.167,11.779,4.439,20.267
			c-22.77-0.628-44.809,0.724-67.337,4.081c1.93,7.672,2.5,11.84,2.6,20.839c-6.136-0.744-9.207-1.031-15.351-1.437
			c-0.352-11.079-1.548-15.974-5.244-24.475C250.758,130.286,277.283,123.924,305.152,120.346z"/>
	</g>
</g>
<g>
	<g>
		<path stroke="#000000" stroke-miterlimit="10" d="M73.035,233.435c-4.205-8.812-5.867-13.65-8.004-24.184
			c-7.828,0.438-11.759,0.53-19.642,0.439c2.534,11.513,5.607,21.532,10.139,32.405c-5.733,1.67-8.622,2.441-14.442,3.858
			c-8.475-19.013-11.385-38.76-12.398-59.377c26.896,5.937,53.031,8.354,80.558,7.496c1.334,10.433,3.014,14.977,7.598,22.718
			c-5.296,2.644-7.976,3.908-13.393,6.315c-3.497-6.236-4.917-9.694-6.845-17.287c-6.801,1.104-10.222,1.558-17.095,2.261
			c2.026,8.975,3.545,13.091,7.333,20.577C81.369,230.687,78.606,231.644,73.035,233.435z"/>
		<path stroke="#000000" stroke-miterlimit="10" d="M58.394,274.115c18.975-19.546,38.863-37.643,60.124-54.675
			c1.854,2.75,2.876,4.031,5.072,6.405c-9.129,9.044-18.015,18.333-26.654,27.846c-5.709,6.336-11.005,12.227-16.665,18.433
			c0.063,0.062,0.094,0.093,0.157,0.154c7.583-3.658,15.882-7.792,23.575-12.324c11.489-6.757,22.141-14.945,31.571-24.366
			c2.935,1.776,4.471,2.556,7.63,3.893c-19.729,23.125-42.083,38.417-70.267,49.687C66.687,283.695,63.75,280.686,58.394,274.115z"
			/>
		<path stroke="#000000" stroke-miterlimit="10" d="M159.007,289.516c-8.999-0.693-13.491-1.469-22.158-3.881
			c-3.447,7.003-5.269,10.47-9.109,17.325c9.506,2.904,19.327,4.742,29.235,5.517c-1.575,5.647-2.42,8.462-4.229,14.069
			c-16.923-1.628-33.57-6.06-48.967-13.289c16.67-21.595,30.934-43.979,43.354-68.27c8.045,2.778,12.396,3.49,20.955,3.563
			c-0.606,5.741-0.971,8.611-1.823,14.338c-6.747-0.179-10.135-0.609-16.687-2.147c-2.482,6.367-3.804,9.528-6.607,15.798
			c7.545,1.949,11.447,2.552,19.25,3.014C161.051,281.151,160.408,283.946,159.007,289.516z"/>
		<path stroke="#000000" stroke-miterlimit="10" d="M165.601,323.248c5.462-26.248,8.381-52.13,8.807-78.938
			c3.611-0.308,5.41-0.585,8.939-1.379c3.963,9.453,8.662,18.594,14.021,27.331c5.22,8.92,9.72,16.033,14.435,23.536
			c0.117-0.043,0.176-0.062,0.293-0.105c-3.072-8.962-5.61-18.102-8.109-27.236c-2.622-9.235-5.621-18.363-8.983-27.355
			c2.616-1.155,3.892-1.808,6.352-3.269c11.858,24.076,21.145,48.46,28.334,74.317c-6.678,3.022-10.126,4.314-17.149,6.467
			c-6.723-9.001-12.743-17.961-18.513-27.601c-4.492-8.219-8.195-16.868-10.99-25.809c-0.076,0.059-0.116,0.089-0.192,0.147
			c1,10.454,1.088,20.844,1.058,31.336c-0.26,11.142-0.605,16.73-1.732,27.9C175.565,323.208,172.238,323.337,165.601,323.248z"/>
		<path stroke="#000000" stroke-miterlimit="10" d="M221.515,239.113c-3.476,3.29-5.354,4.767-9.297,7.385
			c-2.832-5.236-4.304-7.822-7.358-12.923c8.798-6.129,12.676-10.263,17.793-20.68c4.966,3.269,7.416,4.963,12.25,8.462
			c-2.376,4.564-3.756,6.672-6.809,10.549c15.254,15.808,28.984,32.34,41.762,50.208c-5.008,5.172-7.688,7.555-13.31,11.915
			C246.138,274.752,234.619,256.671,221.515,239.113z"/>
		<path stroke="#000000" stroke-miterlimit="10" d="M275.544,242.708c4.536-2.771,9.393-8.234,11.729-15.759
			c2.11-6.798,0.468-14.194-5.498-15.619c-4.276-1.021-7.663,2.055-13.055,7.125c-6.333,5.956-14.611,8.896-23.795,4.254
			c-9.695-4.9-19.92-15.257-18.232-26.808c0.741-5.075,2.97-8.351,4.842-10.475c5.493,1.424,8.229,2.277,13.648,4.245
			c-1.483,1.847-3.901,5.66-4.601,9.968c-0.836,5.148,2.006,8.887,6.089,10.226c4.305,1.412,8.148-1.051,12.607-5.84
			c6.294-6.759,12.843-12.901,21.95-12.392c20.624,1.153,23.999,26.47,18.909,42.042c-4.107,12.565-10.947,19.006-15.352,21.071
			C281.254,249.754,279.4,247.342,275.544,242.708z"/>
	</g>
</g>
<circle fill="#C1272D" cx="167.498" cy="167.166" r="33.392"/>
</svg>
